# xmcd
#
# Track frame offsets: 
#        150
#        10947
#        31770
#        55802
#        76432
#        88850
#        111792
#        122280
#        135997
#        146247
#
# Disc length: 2066 seconds
#
# Revision: 0
# Processed by: cddbd v1.5.1PL2 Copyright (c) Steve Scherf et al.
# Submitted via: ExactAudioCopy v0.95b4
#
DISCID=7908100a
DTITLE=The Hep Cat Boo Daddies - Long Time Comin'
DYEAR=2002
DGENRE=Blues
TTITLE0=Death Trap
TTITLE1=Got My Mind On You
TTITLE2=Hold On
TTITLE3=6 Feet
TTITLE4=Dan Dan (The Fireman)
TTITLE5=Too Damn Old
TTITLE6=Terror
TTITLE7=Blood 'N' Roses
TTITLE8=Red Hot
TTITLE9=Double Surf
EXTD=
EXTT0=
EXTT1=
EXTT2=
EXTT3=
EXTT4=
EXTT5=
EXTT6=
EXTT7=
EXTT8=
EXTT9=
PLAYORDER=
